<svg width="17" height="22" viewBox="0 0 17 22" fill="none" xmlns="http://www.w3.org/2000/svg">
<g id="8541969_file_download_icon 2" clip-path="url(#clip0_2174_2223)">
<path id="Vector" d="M9.91667 5.84375V0H1.0625C0.473698 0 0 0.459766 0 1.03125V20.9688C0 21.5402 0.473698 22 1.0625 22H15.9375C16.5263 22 17 21.5402 17 20.9688V6.875H10.9792C10.3948 6.875 9.91667 6.41094 9.91667 5.84375ZM13.3012 14.9256L9.03258 19.0377C8.73818 19.3218 8.26271 19.3218 7.96831 19.0377L3.69971 14.9256C3.25036 14.4929 3.56557 13.75 4.19776 13.75H7.08333V10.3125C7.08333 9.93266 7.40031 9.625 7.79167 9.625H9.20833C9.59969 9.625 9.91667 9.93266 9.91667 10.3125V13.75H12.8022C13.4344 13.75 13.7496 14.4929 13.3012 14.9256ZM16.6901 4.51172L12.356 0.300781C12.1568 0.107422 11.8867 0 11.6034 0H11.3333V5.5H17V5.23789C17 4.96719 16.8893 4.70508 16.6901 4.51172Z" fill="white"/>
</g>
<defs>
<clipPath id="clip0_2174_2223">
<rect width="17" height="22" fill="white"/>
</clipPath>
</defs>
</svg>
