<svg width="22" height="17" viewBox="0 0 22 17" fill="none" xmlns="http://www.w3.org/2000/svg">
<rect width="22" height="17" fill="#F5F5F5"/>
<g id="&#227;&#131;&#136;&#227;&#131;&#131;&#227;&#131;&#151;&#227;&#131;&#154;&#227;&#131;&#188;&#227;&#130;&#184;" clip-path="url(#clip0_2041_987)">
<rect width="1600" height="6356" transform="translate(-1408 -41)" fill="white"/>
<g id="Component 7">
<rect id="Rectangle 58" x="-19" y="-18" width="183" height="52" rx="26" fill="#261F88"/>
<g id="326670_mail_icon 1" clip-path="url(#clip1_2041_987)">
<g id="Page-1">
<g id="Core">
<g id="mail">
<path id="Shape" fill-rule="evenodd" clip-rule="evenodd" d="M19.8 0H2.2C0.99 0 0 0.95625 0 2.125V14.875C0 16.0438 0.99 17 2.2 17H19.8C21.01 17 22 16.0438 22 14.875V2.125C22 0.95625 21.01 0 19.8 0ZM19.8 4.25L11 9.5625L2.2 4.25V2.125L11 7.4375L19.8 2.125V4.25Z" fill="white"/>
</g>
</g>
</g>
</g>
</g>
</g>
<defs>
<clipPath id="clip0_2041_987">
<rect width="1600" height="6356" fill="white" transform="translate(-1408 -41)"/>
</clipPath>
<clipPath id="clip1_2041_987">
<rect width="22" height="17" fill="white"/>
</clipPath>
</defs>
</svg>
