<svg width="15" height="15" viewBox="0 0 15 15" fill="none" xmlns="http://www.w3.org/2000/svg">
<path id="Vector" d="M12 6.615C11.8011 6.615 11.6103 6.69402 11.4697 6.83467C11.329 6.97532 11.25 7.16609 11.25 7.365V12.75C11.25 12.9489 11.171 13.1397 11.0303 13.2803C10.8897 13.421 10.6989 13.5 10.5 13.5H2.25C2.05109 13.5 1.86032 13.421 1.71967 13.2803C1.57902 13.1397 1.5 12.9489 1.5 12.75V4.5C1.5 4.30109 1.57902 4.11032 1.71967 3.96967C1.86032 3.82902 2.05109 3.75 2.25 3.75H7.635C7.83391 3.75 8.02468 3.67098 8.16533 3.53033C8.30598 3.38968 8.385 3.19891 8.385 3C8.385 2.80109 8.30598 2.61032 8.16533 2.46967C8.02468 2.32902 7.83391 2.25 7.635 2.25H2.25C1.65326 2.25 1.08097 2.48705 0.65901 2.90901C0.237053 3.33097 0 3.90326 0 4.5V12.75C0 13.3467 0.237053 13.919 0.65901 14.341C1.08097 14.7629 1.65326 15 2.25 15H10.5C11.0967 15 11.669 14.7629 12.091 14.341C12.5129 13.919 12.75 13.3467 12.75 12.75V7.365C12.75 7.16609 12.671 6.97532 12.5303 6.83467C12.3897 6.69402 12.1989 6.615 12 6.615ZM14.94 0.465C14.8639 0.281738 14.7183 0.136106 14.535 0.0599999C14.4448 0.0215692 14.348 0.00118499 14.25 0H9.75C9.55109 0 9.36032 0.0790176 9.21967 0.21967C9.07902 0.360322 9 0.551088 9 0.75C9 0.948912 9.07902 1.13968 9.21967 1.28033C9.36032 1.42098 9.55109 1.5 9.75 1.5H12.4425L4.7175 9.2175C4.6472 9.28722 4.59141 9.37017 4.55333 9.46157C4.51525 9.55296 4.49565 9.65099 4.49565 9.75C4.49565 9.84901 4.51525 9.94704 4.55333 10.0384C4.59141 10.1298 4.6472 10.2128 4.7175 10.2825C4.78722 10.3528 4.87017 10.4086 4.96157 10.4467C5.05296 10.4847 5.15099 10.5043 5.25 10.5043C5.34901 10.5043 5.44704 10.4847 5.53843 10.4467C5.62983 10.4086 5.71278 10.3528 5.7825 10.2825L13.5 2.5575V5.25C13.5 5.44891 13.579 5.63968 13.7197 5.78033C13.8603 5.92098 14.0511 6 14.25 6C14.4489 6 14.6397 5.92098 14.7803 5.78033C14.921 5.63968 15 5.44891 15 5.25V0.75C14.9988 0.651992 14.9784 0.555167 14.94 0.465Z" fill="#261F88"/>
</svg>
